<?xml version="1.0" encoding="UTF-8" standalone="no"?>
<svg
   inkscape:version="1.4.3 (0d15f75042, 2025-12-25)"
   sodipodi:docname="menubaritem.svg"
   version="1.1"
   viewBox="0 0 126 34"
   id="svg2"
   width="126"
   height="42"
   xmlns:inkscape="http://www.inkscape.org/namespaces/inkscape"
   xmlns:sodipodi="http://sodipodi.sourceforge.net/DTD/sodipodi-0.dtd"
   xmlns="http://www.w3.org/2000/svg"
   xmlns:svg="http://www.w3.org/2000/svg">
  <defs
     id="defs319" />
  <sodipodi:namedview
     inkscape:window-maximized="1"
     inkscape:window-y="0"
     inkscape:window-x="0"
     inkscape:cy="19.968749"
     inkscape:cx="70.687497"
     inkscape:zoom="16.000001"
     inkscape:current-layer="svg2"
     showgrid="true"
     id="namedview317"
     inkscape:window-height="1375"
     inkscape:window-width="3440"
     inkscape:pageshadow="2"
     inkscape:pageopacity="0"
     guidetolerance="10"
     gridtolerance="10"
     objecttolerance="10"
     borderopacity="1"
     bordercolor="#666666"
     pagecolor="#ffffff"
     inkscape:snap-text-baseline="true"
     inkscape:snap-smooth-nodes="true"
     fit-margin-top="0"
     fit-margin-left="0"
     fit-margin-right="0"
     fit-margin-bottom="0"
     inkscape:showpageshadow="2"
     inkscape:pagecheckerboard="0"
     inkscape:deskcolor="#d1d1d1">
    <inkscape:grid
       empspacing="2"
       id="grid1136"
       type="xygrid"
       originx="2"
       originy="0"
       spacingy="1"
       spacingx="1"
       units="px" />
  </sodipodi:namedview>
  <style
     id="current-color-scheme"
     type="text/css">
        .ColorScheme-ButtonBackground {
            color:#eff0f1;
            stop-color:#eff0f1;
        }
        .ColorScheme-ButtonHover {
            color:#93cee9;
            stop-color:#93cee9;
        }
        .ColorScheme-ButtonFocus{
            color:#3daee9;
            stop-color:#3daee9;
        }
    </style>
  <g
     transform="translate(-170,-62)"
     id="normal-center">
    <path
       id="path34"
       fill-rule="evenodd"
       fill="transparent"
       d="m 180,68 h 22 v 22 h -22 z" />
  </g>
  <g
     fill-rule="evenodd"
     transform="matrix(3,0,0,3,2,-54)"
     id="normal-bottomleft">
    <path
       id="path7"
       d="M -1.7e-7,30 H 2 v 0.5 H -1.7e-7 Z"
       class="ColorScheme-ButtonFocus"
       fill="none"
       style="stroke-width:0.150756" />
    <path
       fill="transparent"
       d="m 0,28 c 0,1.108 0.892,2 2,2 v -2 z"
       id="rect833-7-3" />
  </g>
  <g
     fill-rule="evenodd"
     transform="matrix(1,0,0,3,6,-54)"
     id="normal-bottom">
    <path
       id="path8"
       d="M 26,30.500001 H 4 v -0.5 h 22 z"
       class="ColorScheme-ButtonFocus"
       fill="none"
       style="stroke-width:0.5" />
    <path
       fill="transparent"
       d="m -26,-30 h 22 v 2 h -22 z"
       transform="scale(-1)"
       id="rect829-6" />
  </g>
  <g
     fill-rule="evenodd"
     transform="matrix(3,0,0,-3,2,88)"
     id="normal-topleft">
    <path
       id="path5"
       d="M 2,30.5 H -5e-8 V 30 H 2 Z"
       class="ColorScheme-ButtonFocus"
       fill="none"
       style="stroke-width:0.150756" />
    <path
       fill="transparent"
       d="m 0,28 c 0,1.108 0.892,2 2,2 v -2 z"
       id="rect833-7-3-1" />
  </g>
  <g
     fill-rule="evenodd"
     transform="matrix(1,0,0,-3,6,88)"
     id="normal-top">
    <path
       id="path3"
       d="M 26,30.500001 H 4 v -0.5 h 22 z"
       class="ColorScheme-ButtonFocus"
       fill="none"
       style="stroke-width:0.5" />
    <path
       fill="transparent"
       d="M 26,30 H 4 v -2 h 22 z"
       id="rect829-6-0" />
  </g>
  <g
     fill-rule="evenodd"
     transform="matrix(0,3,3,0,-50,-2)"
     id="normal-topright">
    <path
       id="path4"
       d="M -0.5,30 V 28 H 0 v 2 z"
       class="ColorScheme-ButtonFocus"
       fill="none"
       style="stroke-width:0.150756" />
    <path
       fill="transparent"
       d="m 0,28 c 0,1.108 0.892,2 2,2 v -2 z"
       id="rect833-7-3-6" />
  </g>
  <g
     fill-rule="evenodd"
     transform="matrix(0,1,3,0,-50,2)"
     id="normal-right">
    <path
       fill="transparent"
       d="m -26,-30 h 22 v 2 h -22 z"
       transform="scale(-1)"
       id="rect829-6-26" />
  </g>
  <g
     fill-rule="evenodd"
     transform="matrix(-3,0,0,3,34,-54)"
     id="normal-bottomright">
    <path
       id="path6"
       d="m -2,30 h 2 v 0.5 h -2 z"
       class="ColorScheme-ButtonFocus"
       fill="none"
       style="stroke-width:0.150756" />
    <path
       fill="transparent"
       d="m -2,28 c 0,1.108 0.892,2 2,2 v -2 z"
       id="rect833-7-3-7" />
  </g>
  <g
     fill-rule="evenodd"
     transform="matrix(0,1,-3,0,92,2)"
     id="normal-left">
    <path
       fill="transparent"
       d="m -26,-30 h 22 v 2 h -22 z"
       transform="scale(-1)"
       id="rect829-6-26-0" />
  </g>
  <path
     fill-rule="evenodd"
     fill="#ff00ff"
     d="m 20,-2 h 2 v 8 h -2 z"
     id="normal-hint-top-margin"
     style="display:inline;fill:#ed333b;stroke-width:1.15469" />
  <path
     fill-rule="evenodd"
     fill="#ff00ff"
     d="m 20,28 h 2 v 8 h -2 z"
     id="normal-hint-bottom-margin"
     style="display:inline;fill:#ed333b;stroke-width:1.1547" />
  <path
     fill-rule="evenodd"
     fill="#ff00ff"
     d="m 2,16 h 8 v 2 H 2 Z"
     id="normal-hint-left-margin"
     style="display:inline;fill:#ed333b;stroke-width:1.1547" />
  <path
     fill-rule="evenodd"
     fill="#ff00ff"
     d="m 32,16 h 8 v 2 h -8 z"
     id="normal-hint-right-margin"
     style="display:inline;fill:#ed333b;stroke-width:1.1547" />
  <g
     transform="translate(-66,-138)"
     id="hover-center">
    <path
       id="path208"
       fill-rule="evenodd"
       fill="currentColor"
       class="ColorScheme-ButtonFocus"
       d="m 118,144 h 22 v 22 h -22 z" />
  </g>
  <g
     fill-rule="evenodd"
     transform="matrix(3,0,0,3,44,-54)"
     id="hover-bottomleft">
    <path
       id="path11"
       d="M -1.7e-7,30 H 2 v 0.5 H -1.7e-7 Z"
       class="ColorScheme-ButtonFocus"
       fill="none"
       style="stroke-width:0.150756" />
    <path
       sodipodi:nodetypes="ccccc"
       fill="currentColor"
       class="ColorScheme-ButtonFocus"
       d="m 0,28 c 0,1.108 0.892,2 2,2 v -2 z"
       id="rect833-7-3-55-1-3" />
  </g>
  <g
     fill-rule="evenodd"
     transform="matrix(1,0,0,3,48,-54)"
     id="hover-bottom">
    <path
       id="path12"
       d="M 26,30.500001 H 4 v -0.5 h 22 z"
       class="ColorScheme-ButtonFocus"
       fill="none"
       style="stroke-width:0.5" />
    <path
       fill="currentColor"
       class="ColorScheme-ButtonFocus"
       d="m -26,-30 h 22 v 2 h -22 z"
       transform="scale(-1)"
       id="rect829-6-5-1-9" />
  </g>
  <g
     fill-rule="evenodd"
     transform="matrix(3,0,0,-3,44,88)"
     id="hover-topleft">
    <path
       id="path9"
       d="M 2,30.5 H -5e-8 V 30 H 2 Z"
       class="ColorScheme-ButtonFocus"
       fill="none"
       style="stroke-width:0.150756" />
    <path
       sodipodi:nodetypes="ccccc"
       fill="currentColor"
       class="ColorScheme-ButtonFocus"
       d="m 0,28 c 0,1.108 0.892,2 2,2 v -2 z"
       id="rect833-7-3-1-3-9-6" />
  </g>
  <g
     fill-rule="evenodd"
     transform="matrix(1,0,0,-3,48,88)"
     id="hover-top">
    <path
       id="path2"
       d="M 26,30.500001 H 4 v -0.5 h 22 z"
       class="ColorScheme-ButtonFocus"
       fill="none"
       style="stroke-width:0.5" />
    <path
       fill="currentColor"
       class="ColorScheme-ButtonFocus"
       d="m -26,-30 h 22 v 2 h -22 z"
       transform="scale(-1)"
       id="rect829-6-0-5-6-4" />
  </g>
  <g
     fill-rule="evenodd"
     transform="matrix(0,3,3,0,-8,-2)"
     id="hover-topright">
    <path
       id="path10"
       d="M -0.5,30 V 28 H 0 v 2 z"
       class="ColorScheme-ButtonFocus"
       fill="none"
       style="stroke-width:0.150756" />
    <path
       sodipodi:nodetypes="ccccc"
       fill="currentColor"
       class="ColorScheme-ButtonFocus"
       d="m 0,28 c 0,1.108 0.892,2 2,2 v -2 z"
       id="rect833-7-3-6-4-6-4" />
  </g>
  <g
     fill-rule="evenodd"
     transform="matrix(0,1,3,0,-8,2)"
     id="hover-right">
    <path
       fill="currentColor"
       class="ColorScheme-ButtonFocus"
       d="m -26,-30 h 22 v 2 h -22 z"
       transform="scale(-1)"
       id="rect829-6-26-4-3-8" />
  </g>
  <g
     fill-rule="evenodd"
     transform="matrix(-3,0,0,3,82,-54)"
     id="hover-bottomright">
    <path
       id="path13"
       d="m 0,30 h 2.0000007 v 0.5 H 0 Z"
       class="ColorScheme-ButtonFocus"
       fill="none"
       style="stroke-width:0.150756" />
    <path
       sodipodi:nodetypes="ccccccc"
       fill="currentColor"
       class="ColorScheme-ButtonFocus"
       d="m 0,28 c 0,1.108 0.892,2 2,2 v -2 z"
       id="rect833-7-3-7-7-8-2" />
  </g>
  <g
     fill-rule="evenodd"
     transform="matrix(0,1,-3,0,134,2)"
     id="hover-left">
    <path
       fill="currentColor"
       class="ColorScheme-ButtonFocus"
       d="m -26,-30 h 22 v 2 h -22 z"
       transform="scale(-1)"
       id="rect829-6-26-0-8-9-6" />
  </g>
  <path
     fill-rule="evenodd"
     fill="#ff00ff"
     d="m 62,-2 h 2 v 7.9999999 h -2 z"
     id="hover-hint-top-margin"
     style="display:inline;fill:#ed333b;stroke-width:1.1547" />
  <path
     fill-rule="evenodd"
     fill="#ff00ff"
     d="m 62,28 h 2 v 8 h -2 z"
     id="hover-hint-bottom-margin"
     style="display:inline;fill:#ed333b;stroke-width:1.1547" />
  <path
     fill-rule="evenodd"
     fill="#ff00ff"
     d="m 44,16 h 8 v 2 h -8 z"
     id="hover-hint-left-margin"
     style="display:inline;fill:#ed333b;stroke-width:1.1547" />
  <path
     fill-rule="evenodd"
     fill="#ff00ff"
     d="m 74,16 h 8 v 2 h -8 z"
     id="hover-hint-right-margin"
     style="display:inline;fill:#ed333b;stroke-width:1.1547" />
  <g
     id="pressed-center"
     transform="translate(-24,-138)">
    <path
       d="m 118,144 h 22 v 22 h -22 z"
       class="ColorScheme-ButtonFocus"
       fill="currentColor"
       fill-rule="evenodd"
       id="path208-6" />
  </g>
  <g
     id="pressed-bottomleft"
     transform="matrix(3,0,0,3,86,-54)"
     fill-rule="evenodd">
    <path
       id="path17"
       d="M -1.7e-7,30 H 2 v 0.5 H -1.7e-7 Z"
       class="ColorScheme-ButtonFocus"
       fill="none"
       style="stroke-width:0.150756" />
    <path
       id="rect833-7-3-55-1-3-5"
       d="m 0,28 c 0,1.108 0.892,2 2,2 v -2 z"
       class="ColorScheme-ButtonFocus"
       fill="currentColor"
       sodipodi:nodetypes="ccccc" />
  </g>
  <g
     id="pressed-bottom"
     transform="matrix(1,0,0,3,90,-54)"
     fill-rule="evenodd">
    <path
       id="path18"
       d="M 26,30.500001 H 4 v -0.5 h 22 z"
       class="ColorScheme-ButtonFocus"
       fill="none"
       style="stroke-width:0.5" />
    <path
       id="rect829-6-5-1-9-5"
       transform="scale(-1)"
       d="m -26,-30 h 22 v 2 h -22 z"
       class="ColorScheme-ButtonFocus"
       fill="currentColor" />
  </g>
  <g
     id="pressed-topleft"
     transform="matrix(3,0,0,-3,86,88)"
     fill-rule="evenodd">
    <path
       id="path14"
       d="M 2,30.5 H -5e-8 V 30 H 2 Z"
       class="ColorScheme-ButtonFocus"
       fill="none"
       style="stroke-width:0.150756" />
    <path
       id="rect833-7-3-1-3-9-6-2"
       d="m 0,28 c 0,1.108 0.892,2 2,2 v -2 z"
       class="ColorScheme-ButtonFocus"
       fill="currentColor"
       sodipodi:nodetypes="ccccc" />
  </g>
  <g
     id="pressed-top"
     transform="matrix(1,0,0,-3,90,88)"
     fill-rule="evenodd">
    <path
       id="path16"
       d="M 26,30.500001 H 4 v -0.5 h 22 z"
       class="ColorScheme-ButtonFocus"
       fill="none"
       style="stroke-width:0.5" />
    <path
       id="rect829-6-0-5-6-4-1"
       transform="scale(-1)"
       d="m -26,-30 h 22 v 2 h -22 z"
       class="ColorScheme-ButtonFocus"
       fill="currentColor" />
    <path
       id="path1"
       d="M 26,30.500001 H 4 v -0.5 h 22 z"
       class="ColorScheme-ButtonFocus"
       fill="none"
       style="stroke-width:0.5" />
  </g>
  <g
     id="pressed-topright"
     transform="matrix(0,3,3,0,34,-2)"
     fill-rule="evenodd">
    <path
       id="path15"
       d="M -0.5,30 V 28 H 0 v 2 z"
       class="ColorScheme-ButtonFocus"
       fill="none"
       style="stroke-width:0.150756" />
    <path
       id="rect833-7-3-6-4-6-4-7"
       d="m 0,28 c 0,1.108 0.892,2 2,2 v -2 z"
       class="ColorScheme-ButtonFocus"
       fill="currentColor"
       sodipodi:nodetypes="ccccc" />
  </g>
  <g
     id="pressed-right"
     transform="matrix(0,1,3,0,34,2)"
     fill-rule="evenodd">
    <path
       id="rect829-6-26-4-3-8-9"
       transform="scale(-1)"
       d="m -26,-30 h 22 v 2 h -22 z"
       class="ColorScheme-ButtonFocus"
       fill="currentColor" />
  </g>
  <g
     id="pressed-bottomright"
     transform="matrix(-3,0,0,3,118,-54)"
     fill-rule="evenodd">
    <path
       id="path19"
       d="m -2,30 h 2 v 0.5 h -2 z"
       class="ColorScheme-ButtonFocus"
       fill="none"
       style="stroke-width:0.150756" />
    <path
       id="rect833-7-3-7-7-8-2-6"
       d="m -2,28 c 0,1.108 0.892,2 2,2 v -2 z"
       class="ColorScheme-ButtonFocus"
       fill="currentColor"
       sodipodi:nodetypes="ccccccc" />
  </g>
  <g
     id="pressed-left"
     transform="matrix(0,1,-3,0,176,2)"
     fill-rule="evenodd">
    <path
       id="rect829-6-26-0-8-9-6-6"
       transform="scale(-1)"
       d="m -26,-30 h 22 v 2 h -22 z"
       class="ColorScheme-ButtonFocus"
       fill="currentColor" />
  </g>
  <path
     style="display:inline;fill:#ed333b;stroke-width:1.1547"
     id="pressed-hint-top-margin"
     d="m 104,-2 h 2 v 7.9999999 h -2 z"
     fill="#ff00ff"
     fill-rule="evenodd" />
  <path
     style="display:inline;fill:#ed333b;stroke-width:1.1547"
     id="pressed-hint-bottom-margin"
     d="m 104,28 h 2 v 8 h -2 z"
     fill="#ff00ff"
     fill-rule="evenodd" />
  <path
     style="display:inline;fill:#ed333b;stroke-width:1.1547"
     id="pressed-hint-left-margin"
     d="m 86,16 h 8 v 2 h -8 z"
     fill="#ff00ff"
     fill-rule="evenodd" />
  <path
     style="display:inline;fill:#ed333b;stroke-width:1.1547"
     id="pressed-hint-right-margin"
     d="m 116,16 h 8 v 2 h -8 z"
     fill="#ff00ff"
     fill-rule="evenodd" />
</svg>
