<?xml version="1.0" encoding="UTF-8" standalone="no"?>
<svg
   id="svg2"
   version="1.1"
   viewBox="0 0 173 56.000004"
   sodipodi:docname="plasmoidheading.svg"
   inkscape:version="1.4.2 (ebf0e940d0, 2025-05-08)"
   xmlns:inkscape="http://www.inkscape.org/namespaces/inkscape"
   xmlns:sodipodi="http://sodipodi.sourceforge.net/DTD/sodipodi-0.dtd"
   xmlns="http://www.w3.org/2000/svg"
   xmlns:svg="http://www.w3.org/2000/svg">
  <defs
     id="defs50" />
  <sodipodi:namedview
     id="namedview48"
     pagecolor="#ffffff"
     bordercolor="#666666"
     borderopacity="1.0"
     inkscape:pageshadow="2"
     inkscape:pageopacity="0.0"
     inkscape:pagecheckerboard="0"
     showgrid="true"
     inkscape:zoom="14.570137"
     inkscape:cx="62.353567"
     inkscape:cy="36.753258"
     inkscape:window-width="3440"
     inkscape:window-height="1373"
     inkscape:window-x="0"
     inkscape:window-y="0"
     inkscape:window-maximized="1"
     inkscape:current-layer="svg2"
     inkscape:blackoutopacity="0.0"
     inkscape:showpageshadow="2"
     inkscape:deskcolor="#d1d1d1">
    <inkscape:grid
       type="xygrid"
       id="grid4266"
       originx="0"
       originy="0"
       spacingy="1"
       spacingx="1"
       units="px" />
  </sodipodi:namedview>
  <style
     id="current-color-scheme"
     type="text/css">
        .ColorScheme-Text {
            color:#232629;
        }
        .ColorScheme-Background {
            color:#eff0f1;
        }
        .ColorScheme-ViewBackground {
            color:#ffffff;
        }
    </style>
  <path
     id="hint-stretch-borders"
     d="m-7-7h5v5h-5z"
     opacity=".6" />
  <g
     id="header-topleft">
    <path
       id="path1780"
       class="ColorScheme-Background"
       fill="currentColor"
       d="m 13,12 h 6 V 6 c -4,0 -6,2 -6,6 z"
       opacity="0.75"
       sodipodi:nodetypes="cccc" />
    <path
       d="m 13.00001,12 h 0.999349 v -1 c 0,-2.233297 1.765552,-4 3.997395,-4 h 0.999349 L 19,6 H 17.996744 C 15.228548,6 13,8.23 13,11 Z"
       style="fill:currentColor;stroke-width:0.999674"
       class="ColorScheme-Frame"
       id="path1308-6"
       sodipodi:nodetypes="cccc" />
  </g>
  <g
     id="header-top">
    <path
       id="path1066"
       class="ColorScheme-Background"
       d="m-12 19h6v32h-6z"
       fill="currentColor"
       opacity=".75"
       transform="rotate(-90)" />
    <path
       d="M 19,6 V 7 H 51 V 6 Z"
       id="path1337"
       class="ColorScheme-Frame"
       fill="currentColor" />
  </g>
  <g
     id="header-topright">
    <path
       id="path1785"
       class="ColorScheme-Background"
       fill="currentColor"
       d="m 51,6 v 6 h 6 C 57,8 55,6 51,6 Z"
       opacity="0.75"
       sodipodi:nodetypes="cccc" />
    <path
       d="m 51,6.00001 v 0.999349 h 1 c 2.233297,0 4,1.765552 4,3.997395 v 0.999349 L 57,12 V 10.996744 C 57,8.228548 54.77,6 52,6 Z"
       style="fill:currentColor;stroke-width:0.999674"
       class="ColorScheme-Frame"
       id="path1308-3"
       sodipodi:nodetypes="cccc" />
  </g>
  <g
     id="header-left">
    <path
       id="path-hl"
       class="ColorScheme-Background"
       transform="scale(-1)"
       d="m-19-44h6v32h-6z"
       fill="currentColor"
       opacity=".75" />
    <path
       d="m 13,44 h 1 V 12 h -1 z"
       id="path1902"
       class="ColorScheme-Frame"
       fill="currentColor" />
  </g>
  <path
     id="header-center"
     class="ColorScheme-Background"
     d="m19 12h32v32h-32z"
     fill="currentColor"
     opacity=".75" />
  <g
     id="header-right">
    <path
       id="path-hr"
       class="ColorScheme-Background"
       d="m51 12h6v32h-6z"
       fill="currentColor"
       opacity=".75" />
    <path
       d="m 56,44 h 1 V 12 h -1 z"
       id="path1785-4"
       class="ColorScheme-Frame"
       fill="currentColor" />
  </g>
  <g
     id="header-bottomleft"
     fill="currentColor">
    <path
       id="path3182"
       class="ColorScheme-Background"
       d="m 19,50 v -6 h -6 v 6 z"
       opacity="0.75"
       fill="currentColor"
       sodipodi:nodetypes="ccccc" />
    <path
       id="path3184"
       class="ColorScheme-Frame"
       d="m19 50v-1h-4l-2-2e-5v1l2 2e-5h1z"
       fill-rule="evenodd"
       fill="currentColor" />
    <path
       id="path1"
       class="ColorScheme-Frame"
       d="m 14.00002,44 h -1 v 4 L 13,50 h 1 l 2e-5,-2 v -1 z"
       fill-rule="evenodd"
       fill="currentColor" />
  </g>
  <g
     id="header-bottom"
     fill="currentColor">
    <path
       id="rect3152"
       class="ColorScheme-Background"
       transform="rotate(90)"
       d="m44-51h6v32h-6z"
       opacity=".75"
       fill="currentColor" />
    <path
       id="rect3154"
       class="ColorScheme-Frame"
       transform="rotate(90)"
       d="m49-51h1v32h-1z"
       fill="currentColor" />
  </g>
  <g
     id="header-bottomright"
     fill="currentColor">
    <path
       id="path3176"
       class="ColorScheme-Background"
       d="m 57,44 h -6 v 6 h 6 z"
       opacity="0.75"
       fill="currentColor"
       sodipodi:nodetypes="ccccc" />
    <path
       id="path3178"
       class="ColorScheme-Frame"
       d="m57 49h-6v1h6c0-1-2e-5 0 0-1z"
       fill-rule="evenodd"
       fill="currentColor" />
    <path
       id="path2"
       class="ColorScheme-Frame"
       d="m 56,44 v 6 h 1 v -6 c -1,0 0,2e-5 -1,0 z"
       fill-rule="evenodd"
       fill="currentColor" />
  </g>
  <g
     id="footer-topleft"
     fill="currentColor">
    <path
       id="path3182-1"
       class="ColorScheme-Background"
       d="m 67,6 v 6 H 61 V 6 Z"
       opacity="0.75"
       fill="currentColor"
       sodipodi:nodetypes="ccccc" />
    <path
       id="path3184-8"
       class="ColorScheme-Frame"
       d="m67 6v1h-4l-2 2e-5v-1l2-2e-5h1z"
       fill-rule="evenodd"
       fill="currentColor" />
    <path
       id="path3184-8-2"
       class="ColorScheme-Frame"
       d="m 62.00002,12 h -1 V 8 L 61,6 h 1 l 2e-5,2 v 1 z"
       fill-rule="evenodd"
       fill="currentColor" />
  </g>
  <g
     id="footer-top"
     fill="currentColor">
    <path
       id="rect3152-0"
       class="ColorScheme-Background"
       transform="matrix(0 -1 -1 0 0 0)"
       d="m-12-99h6v32h-6z"
       opacity=".75"
       fill="currentColor" />
    <path
       id="rect3154-9"
       class="ColorScheme-Frame"
       transform="matrix(0 -1 -1 0 0 0)"
       d="m-7-99h1v32h-1z"
       fill="currentColor" />
  </g>
  <g
     id="footer-topright"
     fill="currentColor">
    <path
       id="path3176-6"
       class="ColorScheme-Background"
       d="M 105,12 H 99 V 6 h 6 z"
       opacity="0.75"
       fill="currentColor"
       sodipodi:nodetypes="ccccc" />
    <path
       id="path3178-2"
       class="ColorScheme-Frame"
       d="m105 7h-6v-1h6c0 1-2e-5 0 0 1z"
       fill-rule="evenodd"
       fill="currentColor" />
    <path
       id="path3178-2-4"
       class="ColorScheme-Frame"
       d="M 104,12 V 6 h 1 v 6 c -1,0 0,-2e-5 -1,0 z"
       fill-rule="evenodd"
       fill="currentColor" />
  </g>
  <path
     id="footer-center"
     class="ColorScheme-Background"
     transform="scale(1 -1)"
     d="m67-44h32v32h-32z"
     fill="currentColor"
     opacity=".75" />
  <path
     id="hint-top-margin"
     d="m33 12h4v6h-4z"
     fill="#f0f" />
  <path
     id="hint-bottom-margin"
     d="m33 38h4v6h-4z"
     fill="#f0f" />
  <path
     id="hint-right-margin"
     transform="rotate(90)"
     d="m26-51h4v6h-4z"
     fill="#f0f" />
  <path
     id="hint-left-margin"
     transform="rotate(90)"
     d="m26-25h4v6h-4z"
     fill="#f0f" />
  <g
     id="footer-left">
    <path
       id="path-fl"
       class="ColorScheme-Background"
       transform="scale(-1 1)"
       d="m-67 12h6v32h-6z"
       fill="currentColor"
       opacity=".75" />
    <path
       d="m 61,44 h 1 V 12 h -1 z"
       id="path1902-3"
       class="ColorScheme-Frame"
       fill="currentColor" />
  </g>
  <g
     id="footer-right">
    <path
       id="path-fr"
       class="ColorScheme-Background"
       transform="scale(1 -1)"
       d="m99-44h6v32h-6z"
       fill="currentColor"
       opacity=".75" />
    <path
       d="m 104,44 h 1 V 12 h -1 z"
       id="path1785-4-7"
       class="ColorScheme-Frame"
       fill="currentColor" />
  </g>
  <g
     id="footer-bottom">
    <path
       id="path3"
       class="ColorScheme-Background"
       transform="matrix(0 1 1 0 0 0)"
       d="m44 67h6v32h-6z"
       fill="currentColor"
       opacity=".75" />
    <path
       id="rect3154-4"
       class="ColorScheme-Frame"
       d="m 99,49 v 1 H 67 v -1 z"
       fill="currentColor" />
  </g>
  <g
     id="footer-bottomleft">
    <path
       id="path4"
       opacity="0.75"
       class="ColorScheme-Background"
       fill="currentColor"
       d="m 61,44 c 0,4 2,6 6,6 v -6 z"
       sodipodi:nodetypes="cccc" />
    <path
       d="m 67,49.99999 v -0.999349 h -1 c -2.233297,0 -4,-1.765552 -4,-3.997395 V 44.003897 L 61,44 v 1.003256 C 61,47.771452 63.23,50 66,50 Z"
       style="fill:currentColor;stroke-width:0.999674"
       class="ColorScheme-Frame"
       id="path1308-3-4"
       sodipodi:nodetypes="cccc" />
  </g>
  <g
     id="footer-bottomright">
    <path
       id="path5"
       class="ColorScheme-Background"
       fill="currentColor"
       d="m 99,44 v 6 c 4,0 6,-2 6,-6 z"
       opacity="0.75"
       sodipodi:nodetypes="cccc" />
    <path
       d="m 104.99999,44 h -0.99935 v 1 c 0,2.2333 -1.76555,4 -3.99739,4 H 99.003897 L 99,50 h 1.00326 C 102.77145,50 105,47.77 105,45 Z"
       style="fill:currentColor;stroke-width:0.999674"
       class="ColorScheme-Frame"
       id="path1308-3-3"
       sodipodi:nodetypes="cccc" />
  </g>
</svg>
